<?xml version="1.0" encoding="UTF-8" standalone="no"?>
<!DOCTYPE svg PUBLIC "-//W3C//DTD SVG 1.1//EN"
 "http://www.w3.org/Graphics/SVG/1.1/DTD/svg11.dtd">
<!-- Generated by graphviz version 13.1.0 (20250701.0955)
 -->
<!-- Title: G Pages: 1 -->
<svg width="550pt" height="652pt"
 viewBox="0.00 0.00 550.00 652.00" xmlns="http://www.w3.org/2000/svg" xmlns:xlink="http://www.w3.org/1999/xlink">
<g id="graph0" class="graph" transform="scale(1 1) rotate(0) translate(4 648.18)">
<title>G</title><style>.edge>path:hover{stroke-width:8}</style>
<polygon fill="white" stroke="none" points="-4,4 -4,-648.18 545.91,-648.18 545.91,4 -4,4"/>
<!-- App -->
<g id="node1" class="node">
<title>App</title><style>.edge>path:hover{stroke-width:8}</style>
<ellipse fill="#bf2121" stroke="black" cx="150.06" cy="-403.04" rx="27" ry="18"/>
<text xml:space="preserve" text-anchor="middle" x="150.06" y="-399.17" font-family="Helvetica,sans-Serif" font-size="10.00" fill="#ffffff">App</text>
</g>
<!-- app_py -->
<g id="node6" class="node">
<title>app_py</title><style>.edge>path:hover{stroke-width:8}</style>
<ellipse fill="#569f73" stroke="black" cx="153.06" cy="-18" rx="27" ry="18"/>
<text xml:space="preserve" text-anchor="middle" x="153.06" y="-14.12" font-family="Helvetica,sans-Serif" font-size="10.00" fill="#000000">app.py</text>
</g>
<!-- App&#45;&gt;app_py -->
<g id="edge1" class="edge">
<title>App&#45;&gt;app_py</title><style>.edge>path:hover{stroke-width:8}</style>
<path fill="none" stroke="black" d="M150.62,-384.55C151.49,-356.05 153.06,-297.84 153.06,-248.52 153.06,-248.52 153.06,-248.52 153.06,-181 153.06,-133 166.87,-118.97 153.06,-73"/>
<path fill="none" stroke="black" d="M153.06,-72C150.6,-64.22 149.84,-55.47 149.91,-47.35"/>
<polygon fill="#bf2121" stroke="black" points="153.39,-47.78 150.4,-37.62 146.4,-47.43 153.39,-47.78"/>
</g>
<!-- App_components -->
<g id="node2" class="node">
<title>App_components</title><style>.edge>path:hover{stroke-width:8}</style>
<ellipse fill="#c43131" stroke="black" cx="291.06" cy="-403.04" rx="52.96" ry="18"/>
<text xml:space="preserve" text-anchor="middle" x="291.06" y="-399.17" font-family="Helvetica,sans-Serif" font-size="10.00" fill="#ffffff">App.components</text>
</g>
<!-- App_interface -->
<g id="node5" class="node">
<title>App_interface</title><style>.edge>path:hover{stroke-width:8}</style>
<ellipse fill="#883a3a" stroke="black" cx="225.06" cy="-127" rx="43.64" ry="18"/>
<text xml:space="preserve" text-anchor="middle" x="225.06" y="-123.12" font-family="Helvetica,sans-Serif" font-size="10.00" fill="#ffffff">App.interface</text>
</g>
<!-- App_components&#45;&gt;App_interface -->
<g id="edge2" class="edge">
<title>App_components&#45;&gt;App_interface</title><style>.edge>path:hover{stroke-width:8}</style>
<path fill="none" stroke="black" d="M293.48,-384.57C298.46,-351.3 311.32,-276.93 334.06,-218 340.65,-200.92 364.29,-197.18 354.06,-182"/>
</g>
<!-- App_components_form -->
<g id="node3" class="node">
<title>App_components_form</title><style>.edge>path:hover{stroke-width:8}</style>
<ellipse fill="#9d4343" stroke="black" cx="394.06" cy="-247.52" rx="51.09" ry="29.52"/>
<text xml:space="preserve" text-anchor="middle" x="394.06" y="-254.9" font-family="Helvetica,sans-Serif" font-size="10.00" fill="#ffffff">App.</text>
<text xml:space="preserve" text-anchor="middle" x="394.06" y="-243.65" font-family="Helvetica,sans-Serif" font-size="10.00" fill="#ffffff">components.</text>
<text xml:space="preserve" text-anchor="middle" x="394.06" y="-232.4" font-family="Helvetica,sans-Serif" font-size="10.00" fill="#ffffff">form</text>
</g>
<!-- App_components_form&#45;&gt;App_interface -->
<g id="edge3" class="edge">
<title>App_components_form&#45;&gt;App_interface</title><style>.edge>path:hover{stroke-width:8}</style>
<path fill="none" stroke="black" d="M377.77,-219.23C370.68,-207.62 362.16,-194.02 354.06,-182"/>
</g>
<!-- App_components_reserves -->
<g id="node4" class="node">
<title>App_components_reserves</title><style>.edge>path:hover{stroke-width:8}</style>
<ellipse fill="#883a3a" stroke="black" cx="236.06" cy="-247.52" rx="51.09" ry="29.52"/>
<text xml:space="preserve" text-anchor="middle" x="236.06" y="-254.9" font-family="Helvetica,sans-Serif" font-size="10.00" fill="#ffffff">App.</text>
<text xml:space="preserve" text-anchor="middle" x="236.06" y="-243.65" font-family="Helvetica,sans-Serif" font-size="10.00" fill="#ffffff">components.</text>
<text xml:space="preserve" text-anchor="middle" x="236.06" y="-232.4" font-family="Helvetica,sans-Serif" font-size="10.00" fill="#ffffff">reserves</text>
</g>
<!-- App_components_reserves&#45;&gt;App_interface -->
<g id="edge4" class="edge">
<title>App_components_reserves&#45;&gt;App_interface</title><style>.edge>path:hover{stroke-width:8}</style>
<path fill="none" stroke="black" d="M276.28,-229.07C312.47,-212.72 359.24,-189.7 354.06,-182"/>
<path fill="none" stroke="black" d="M354.06,-181C336.99,-155.68 305.43,-142.44 277.8,-135.53"/>
<polygon fill="#883a3a" stroke="black" points="278.65,-132.13 268.12,-133.35 277.11,-138.96 278.65,-132.13"/>
</g>
<!-- App_interface&#45;&gt;app_py -->
<g id="edge5" class="edge">
<title>App_interface&#45;&gt;app_py</title><style>.edge>path:hover{stroke-width:8}</style>
<path fill="none" stroke="black" d="M193.73,-113.97C177.06,-105.48 158.82,-92.18 153.06,-73"/>
</g>
<!-- Backend -->
<g id="node7" class="node">
<title>Backend</title><style>.edge>path:hover{stroke-width:8}</style>
<ellipse fill="#9fb83d" stroke="black" cx="150.06" cy="-475.04" rx="32.1" ry="18"/>
<text xml:space="preserve" text-anchor="middle" x="150.06" y="-471.17" font-family="Helvetica,sans-Serif" font-size="10.00" fill="#000000">Backend</text>
</g>
<!-- Backend&#45;&gt;App -->
<g id="edge6" class="edge">
<title>Backend&#45;&gt;App</title><style>.edge>path:hover{stroke-width:8}</style>
<path fill="none" stroke="black" d="M150.06,-456.74C150.06,-449.45 150.06,-440.77 150.06,-432.58"/>
<polygon fill="#9fb83d" stroke="black" points="153.56,-432.66 150.06,-422.66 146.56,-432.66 153.56,-432.66"/>
</g>
<!-- Backend&#45;&gt;App_components_reserves -->
<g id="edge7" class="edge">
<title>Backend&#45;&gt;App_components_reserves</title><style>.edge>path:hover{stroke-width:8}</style>
<path fill="none" stroke="black" d="M170.78,-461.04C187.63,-448.73 208.81,-428.5 210.06,-404.04"/>
<path fill="none" stroke="black" d="M210.06,-402.04C212.04,-363.02 220.07,-319.13 226.69,-288.3"/>
<polygon fill="#9fb83d" stroke="black" points="230.08,-289.16 228.82,-278.64 223.25,-287.65 230.08,-289.16"/>
</g>
<!-- Backend_DataLoader -->
<g id="node8" class="node">
<title>Backend_DataLoader</title><style>.edge>path:hover{stroke-width:8}</style>
<ellipse fill="#a2b653" stroke="black" cx="63.06" cy="-550.61" rx="46.85" ry="21.57"/>
<text xml:space="preserve" text-anchor="middle" x="63.06" y="-552.36" font-family="Helvetica,sans-Serif" font-size="10.00" fill="#000000">Backend.</text>
<text xml:space="preserve" text-anchor="middle" x="63.06" y="-541.11" font-family="Helvetica,sans-Serif" font-size="10.00" fill="#000000">DataLoader</text>
</g>
<!-- Backend_DataLoader&#45;&gt;App -->
<g id="edge8" class="edge">
<title>Backend_DataLoader&#45;&gt;App</title><style>.edge>path:hover{stroke-width:8}</style>
<path fill="none" stroke="black" d="M59.62,-528.76C57.96,-513.72 57.38,-493.13 63.06,-476.04"/>
</g>
<!-- core -->
<g id="node9" class="node">
<title>core</title><style>.edge>path:hover{stroke-width:8}</style>
<ellipse fill="#2f73db" stroke="black" cx="193.06" cy="-550.61" rx="27" ry="18"/>
<text xml:space="preserve" text-anchor="middle" x="193.06" y="-546.74" font-family="Helvetica,sans-Serif" font-size="10.00" fill="#ffffff">core</text>
</g>
<!-- core&#45;&gt;App -->
<g id="edge9" class="edge">
<title>core&#45;&gt;App</title><style>.edge>path:hover{stroke-width:8}</style>
<path fill="none" stroke="black" d="M169.1,-541.8C129.48,-528.16 55.35,-499.24 63.06,-476.04"/>
</g>
<!-- core&#45;&gt;App_components -->
<g id="edge10" class="edge">
<title>core&#45;&gt;App_components</title><style>.edge>path:hover{stroke-width:8}</style>
<path fill="none" stroke="black" d="M210.06,-474.04C218.04,-453.26 236.3,-436.59 253.46,-424.75"/>
<polygon fill="#2f73db" stroke="black" points="255.06,-427.88 261.54,-419.49 251.25,-422.01 255.06,-427.88"/>
</g>
<!-- core&#45;&gt;App_components_reserves -->
<g id="edge11" class="edge">
<title>core&#45;&gt;App_components_reserves</title><style>.edge>path:hover{stroke-width:8}</style>
<path fill="none" stroke="black" d="M195.66,-532.26C198.26,-517.09 202.91,-494.64 210.06,-476.04"/>
<path fill="none" stroke="black" d="M210.06,-474.04C221.22,-445 206.63,-434.97 210.06,-404.04"/>
</g>
<!-- core&#45;&gt;Backend -->
<g id="edge12" class="edge">
<title>core&#45;&gt;Backend</title><style>.edge>path:hover{stroke-width:8}</style>
<path fill="none" stroke="black" d="M183.51,-533.28C178.21,-524.2 171.47,-512.68 165.44,-502.36"/>
<polygon fill="#2f73db" stroke="black" points="168.55,-500.75 160.49,-493.89 162.51,-504.29 168.55,-500.75"/>
</g>
<!-- core_constants -->
<g id="node10" class="node">
<title>core_constants</title><style>.edge>path:hover{stroke-width:8}</style>
<ellipse fill="#2f73db" stroke="black" cx="138.06" cy="-626.18" rx="47.63" ry="18"/>
<text xml:space="preserve" text-anchor="middle" x="138.06" y="-622.3" font-family="Helvetica,sans-Serif" font-size="10.00" fill="#ffffff">core.constants</text>
</g>
<!-- core_constants&#45;&gt;App -->
<g id="edge13" class="edge">
<title>core_constants&#45;&gt;App</title><style>.edge>path:hover{stroke-width:8}</style>
<path fill="none" stroke="black" d="M92.92,-619.8C63.1,-613.65 26.12,-600.45 7.06,-572.18 -3.66,-556.28 -0.52,-546.65 7.06,-529.04 20.61,-497.57 52.25,-508.56 63.06,-476.04"/>
<path fill="none" stroke="black" d="M63.06,-474.04C70.79,-448.01 96.11,-429.51 117.45,-418.09"/>
<polygon fill="#2f73db" stroke="black" points="118.79,-421.34 126.16,-413.73 115.66,-415.08 118.79,-421.34"/>
</g>
<!-- core_constants&#45;&gt;App_components -->
<g id="edge14" class="edge">
<title>core_constants&#45;&gt;App_components</title><style>.edge>path:hover{stroke-width:8}</style>
<path fill="none" stroke="black" d="M248.06,-549.61C272.89,-513.89 283.58,-463.71 288.04,-432.57"/>
<polygon fill="#2f73db" stroke="black" points="291.49,-433.12 289.31,-422.75 284.55,-432.22 291.49,-433.12"/>
</g>
<!-- core_constants&#45;&gt;App_components_reserves -->
<g id="edge15" class="edge">
<title>core_constants&#45;&gt;App_components_reserves</title><style>.edge>path:hover{stroke-width:8}</style>
<path fill="none" stroke="black" d="M248.06,-474.04C233.52,-441.77 206.16,-439.23 210.06,-404.04"/>
<path fill="none" stroke="black" d="M169.71,-612.31C194.95,-600.36 229.11,-580.12 248.06,-551.61"/>
<path fill="none" stroke="black" d="M248.06,-549.61C266.16,-522.38 261.48,-505.86 248.06,-476.04"/>
</g>
<!-- core_constants&#45;&gt;Backend -->
<g id="edge16" class="edge">
<title>core_constants&#45;&gt;Backend</title><style>.edge>path:hover{stroke-width:8}</style>
<path fill="none" stroke="black" d="M139.46,-607.78C141.5,-582.41 145.31,-534.98 147.77,-504.49"/>
<polygon fill="#2f73db" stroke="black" points="151.23,-505.09 148.54,-494.84 144.25,-504.53 151.23,-505.09"/>
</g>
<!-- dash -->
<g id="node11" class="node">
<title>dash</title><style>.edge>path:hover{stroke-width:8}</style>
<polygon fill="blue" stroke="black" points="454.06,-493.04 400.06,-493.04 400.06,-457.04 454.06,-457.04 454.06,-493.04"/>
<text xml:space="preserve" text-anchor="middle" x="427.06" y="-471.17" font-family="Helvetica,sans-Serif" font-size="10.00" fill="white">dash</text>
</g>
<!-- dash&#45;&gt;App_components_form -->
<g id="edge17" class="edge">
<title>dash&#45;&gt;App_components_form</title><style>.edge>path:hover{stroke-width:8}</style>
<path fill="none" stroke="black" d="M410.06,-330.04C412.06,-316.1 410.21,-300.93 407.15,-287.5"/>
<polygon fill="blue" stroke="black" points="410.62,-286.97 404.73,-278.16 403.85,-288.72 410.62,-286.97"/>
<path fill="none" stroke="black" d="M410.06,-402.04C399.13,-372.91 405.63,-362.84 410.06,-332.04"/>
</g>
<!-- dash&#45;&gt;App_components_reserves -->
<g id="edge18" class="edge">
<title>dash&#45;&gt;App_components_reserves</title><style>.edge>path:hover{stroke-width:8}</style>
<path fill="none" stroke="black" d="M410.06,-402.04C387.88,-342.9 327.6,-298.62 284.21,-273.18"/>
<polygon fill="blue" stroke="black" points="286.14,-270.25 275.72,-268.33 282.67,-276.32 286.14,-270.25"/>
<path fill="none" stroke="black" d="M423.28,-456.67C420.09,-442.44 415.21,-421.82 410.06,-404.04"/>
</g>
<!-- dash&#45;&gt;App_interface -->
<g id="edge19" class="edge">
<title>dash&#45;&gt;App_interface</title><style>.edge>path:hover{stroke-width:8}</style>
<path fill="none" stroke="black" d="M410.06,-330.04C416.65,-284.18 498.71,-288.37 475.06,-248.52"/>
<path fill="none" stroke="black" d="M475.06,-246.52C467.02,-232.98 466.68,-227.41 454.06,-218 416.19,-189.76 381.19,-220.66 354.06,-182"/>
</g>
<!-- dash_Dash -->
<g id="node12" class="node">
<title>dash_Dash</title><style>.edge>path:hover{stroke-width:8}</style>
<ellipse fill="#9849ac" stroke="black" cx="475.06" cy="-331.04" rx="37.42" ry="18"/>
<text xml:space="preserve" text-anchor="middle" x="475.06" y="-327.17" font-family="Helvetica,sans-Serif" font-size="10.00" fill="#ffffff">dash.Dash</text>
</g>
<!-- dash_Dash&#45;&gt;App_interface -->
<g id="edge20" class="edge">
<title>dash_Dash&#45;&gt;App_interface</title><style>.edge>path:hover{stroke-width:8}</style>
<path fill="none" stroke="black" d="M479.86,-312.79C483.69,-295.31 486.69,-268.12 475.06,-248.52"/>
</g>
<!-- dash_html -->
<g id="node13" class="node">
<title>dash_html</title><style>.edge>path:hover{stroke-width:8}</style>
<polygon fill="blue" stroke="black" points="334.43,-568.61 275.68,-568.61 275.68,-532.61 334.43,-532.61 334.43,-568.61"/>
<text xml:space="preserve" text-anchor="middle" x="305.06" y="-546.74" font-family="Helvetica,sans-Serif" font-size="10.00" fill="white">dash.html</text>
</g>
<!-- dash_html&#45;&gt;App_components_form -->
<g id="edge21" class="edge">
<title>dash_html&#45;&gt;App_components_form</title><style>.edge>path:hover{stroke-width:8}</style>
<path fill="none" stroke="black" d="M312.27,-532.38C322.33,-507.92 340.71,-461.62 353.06,-421.04 366.7,-376.19 378.62,-323.65 386.04,-288.44"/>
<polygon fill="blue" stroke="black" points="389.46,-289.19 388.07,-278.68 382.61,-287.76 389.46,-289.19"/>
</g>
<!-- dash_html&#45;&gt;App_components_reserves -->
<g id="edge22" class="edge">
<title>dash_html&#45;&gt;App_components_reserves</title><style>.edge>path:hover{stroke-width:8}</style>
<path fill="none" stroke="black" d="M287.63,-532.16C274.69,-518.17 257.68,-497.4 248.06,-476.04"/>
</g>
<!-- dash_html&#45;&gt;App_interface -->
<g id="edge23" class="edge">
<title>dash_html&#45;&gt;App_interface</title><style>.edge>path:hover{stroke-width:8}</style>
<path fill="none" stroke="black" d="M540.06,-402.04C538.99,-361.61 537.36,-350.06 521.06,-313.04 506.86,-280.81 493.03,-278.81 475.06,-248.52"/>
</g>
<!-- dash_html&#45;&gt;dash -->
<g id="edge24" class="edge">
<title>dash_html&#45;&gt;dash</title><style>.edge>path:hover{stroke-width:8}</style>
<path fill="none" stroke="black" d="M333.97,-532.18C350.66,-522.11 371.82,-509.35 389.76,-498.54"/>
<polygon fill="blue" stroke="black" points="391.56,-501.54 398.31,-493.38 387.94,-495.54 391.56,-501.54"/>
</g>
<!-- dash_html&#45;&gt;dash_Dash -->
<g id="edge25" class="edge">
<title>dash_html&#45;&gt;dash_Dash</title><style>.edge>path:hover{stroke-width:8}</style>
<path fill="none" stroke="black" d="M334.74,-545.56C402.35,-534.66 560.46,-498.82 540.06,-404.04"/>
<path fill="none" stroke="black" d="M540.06,-402.04C539.51,-381.26 523.9,-364.04 508.12,-351.88"/>
<polygon fill="blue" stroke="black" points="510.33,-349.16 500.15,-346.2 506.26,-354.85 510.33,-349.16"/>
</g>
</g>
</svg>
